<mxfile host="app.diagrams.net" agent="Mozilla/5.0 (Windows NT 10.0; Win64; x64) AppleWebKit/537.36 (KHTML, like Gecko) Chrome/128.0.0.0 YaBrowser/24.10.0.0 Safari/537.36" version="24.8.3">
  <diagram id="TgmbTS5AAKT_9vXyKk29" name="Страница — 1">
    <mxGraphModel dx="2261" dy="1960" grid="1" gridSize="10" guides="1" tooltips="1" connect="1" arrows="1" fold="1" page="1" pageScale="1" pageWidth="827" pageHeight="1169" math="0" shadow="0">
      <root>
        <mxCell id="0" />
        <mxCell id="1" parent="0" />
        <mxCell id="u3r5k9TrxhvtEbgM-mZM-3" value="&lt;font style=&quot;vertical-align: inherit;&quot;&gt;&lt;font style=&quot;vertical-align: inherit;&quot;&gt;пользователь&lt;/font&gt;&lt;/font&gt;" style="shape=umlActor;verticalLabelPosition=bottom;verticalAlign=top;html=1;outlineConnect=0;" parent="1" vertex="1">
          <mxGeometry x="340" y="140" width="30" height="60" as="geometry" />
        </mxCell>
        <mxCell id="u3r5k9TrxhvtEbgM-mZM-4" value="выход на прилажению&amp;nbsp;" style="ellipse;whiteSpace=wrap;html=1;" parent="1" vertex="1">
          <mxGeometry x="50" y="260" width="120" height="80" as="geometry" />
        </mxCell>
        <mxCell id="u3r5k9TrxhvtEbgM-mZM-5" value="&lt;font style=&quot;vertical-align: inherit;&quot;&gt;&lt;font style=&quot;vertical-align: inherit;&quot;&gt;регистрация&lt;/font&gt;&lt;/font&gt;" style="ellipse;whiteSpace=wrap;html=1;" parent="1" vertex="1">
          <mxGeometry x="210" y="360" width="120" height="80" as="geometry" />
        </mxCell>
        <mxCell id="u3r5k9TrxhvtEbgM-mZM-6" value="" style="endArrow=none;html=1;rounded=0;exitX=0.575;exitY=0.013;exitDx=0;exitDy=0;exitPerimeter=0;" parent="1" source="u3r5k9TrxhvtEbgM-mZM-4" target="u3r5k9TrxhvtEbgM-mZM-3" edge="1">
          <mxGeometry width="50" height="50" relative="1" as="geometry">
            <mxPoint x="220" y="260" as="sourcePoint" />
            <mxPoint x="270" y="210" as="targetPoint" />
          </mxGeometry>
        </mxCell>
        <mxCell id="QsrLsQC-pCVT0RDgNdcS-2" value="войти&amp;nbsp;" style="ellipse;whiteSpace=wrap;html=1;" vertex="1" parent="1">
          <mxGeometry x="-10" y="390" width="120" height="80" as="geometry" />
        </mxCell>
        <mxCell id="QsrLsQC-pCVT0RDgNdcS-3" value="" style="endArrow=classic;html=1;rounded=0;entryX=0.275;entryY=0.913;entryDx=0;entryDy=0;entryPerimeter=0;" edge="1" parent="1" target="u3r5k9TrxhvtEbgM-mZM-4">
          <mxGeometry width="50" height="50" relative="1" as="geometry">
            <mxPoint x="30" y="390" as="sourcePoint" />
            <mxPoint x="80" y="340" as="targetPoint" />
          </mxGeometry>
        </mxCell>
        <mxCell id="QsrLsQC-pCVT0RDgNdcS-4" value="" style="endArrow=classic;html=1;rounded=0;exitX=0.258;exitY=0.113;exitDx=0;exitDy=0;exitPerimeter=0;" edge="1" parent="1" source="u3r5k9TrxhvtEbgM-mZM-5" target="u3r5k9TrxhvtEbgM-mZM-4">
          <mxGeometry width="50" height="50" relative="1" as="geometry">
            <mxPoint x="210" y="330" as="sourcePoint" />
            <mxPoint x="260" y="280" as="targetPoint" />
          </mxGeometry>
        </mxCell>
        <mxCell id="QsrLsQC-pCVT0RDgNdcS-5" value="" style="endArrow=none;html=1;rounded=0;" edge="1" parent="1" source="u3r5k9TrxhvtEbgM-mZM-3" target="QsrLsQC-pCVT0RDgNdcS-14">
          <mxGeometry width="50" height="50" relative="1" as="geometry">
            <mxPoint x="440" y="240" as="sourcePoint" />
            <mxPoint x="470" y="280" as="targetPoint" />
          </mxGeometry>
        </mxCell>
        <mxCell id="QsrLsQC-pCVT0RDgNdcS-6" value="подать вакансий&lt;div&gt;&amp;nbsp;&lt;/div&gt;" style="ellipse;whiteSpace=wrap;html=1;" vertex="1" parent="1">
          <mxGeometry x="420" y="420" width="120" height="80" as="geometry" />
        </mxCell>
        <mxCell id="QsrLsQC-pCVT0RDgNdcS-7" value="и-9-23&amp;nbsp;&lt;div&gt;марасулов Азизбек&lt;/div&gt;&lt;div&gt;29-онлайн сервис по поиску работу&amp;nbsp;&lt;/div&gt;" style="rounded=0;whiteSpace=wrap;html=1;" vertex="1" parent="1">
          <mxGeometry x="-310" y="-10" width="210" height="120" as="geometry" />
        </mxCell>
        <mxCell id="QsrLsQC-pCVT0RDgNdcS-8" value="посмотреть список вакансий&amp;nbsp;" style="ellipse;whiteSpace=wrap;html=1;" vertex="1" parent="1">
          <mxGeometry x="480" y="290" width="140" height="90" as="geometry" />
        </mxCell>
        <mxCell id="QsrLsQC-pCVT0RDgNdcS-10" value="отклик на вакансий" style="ellipse;whiteSpace=wrap;html=1;" vertex="1" parent="1">
          <mxGeometry x="575" y="440" width="95" height="80" as="geometry" />
        </mxCell>
        <mxCell id="QsrLsQC-pCVT0RDgNdcS-12" value="" style="endArrow=classic;html=1;rounded=0;exitX=0.679;exitY=0.978;exitDx=0;exitDy=0;exitPerimeter=0;entryX=0.337;entryY=0;entryDx=0;entryDy=0;entryPerimeter=0;" edge="1" parent="1" source="QsrLsQC-pCVT0RDgNdcS-8" target="QsrLsQC-pCVT0RDgNdcS-10">
          <mxGeometry width="50" height="50" relative="1" as="geometry">
            <mxPoint x="600" y="430" as="sourcePoint" />
            <mxPoint x="660" y="400" as="targetPoint" />
          </mxGeometry>
        </mxCell>
        <mxCell id="QsrLsQC-pCVT0RDgNdcS-13" value="" style="endArrow=classic;html=1;rounded=0;entryX=0.667;entryY=0;entryDx=0;entryDy=0;entryPerimeter=0;exitX=0;exitY=1;exitDx=0;exitDy=0;" edge="1" parent="1" source="QsrLsQC-pCVT0RDgNdcS-8" target="QsrLsQC-pCVT0RDgNdcS-6">
          <mxGeometry width="50" height="50" relative="1" as="geometry">
            <mxPoint x="460" y="420" as="sourcePoint" />
            <mxPoint x="510" y="370" as="targetPoint" />
          </mxGeometry>
        </mxCell>
        <mxCell id="QsrLsQC-pCVT0RDgNdcS-14" value="поиск работы&amp;nbsp;" style="ellipse;whiteSpace=wrap;html=1;" vertex="1" parent="1">
          <mxGeometry x="620" y="210" width="120" height="80" as="geometry" />
        </mxCell>
        <mxCell id="QsrLsQC-pCVT0RDgNdcS-15" value="" style="endArrow=classic;html=1;rounded=0;entryX=0.929;entryY=0.222;entryDx=0;entryDy=0;entryPerimeter=0;exitX=0.408;exitY=1.025;exitDx=0;exitDy=0;exitPerimeter=0;" edge="1" parent="1" source="QsrLsQC-pCVT0RDgNdcS-14" target="QsrLsQC-pCVT0RDgNdcS-8">
          <mxGeometry width="50" height="50" relative="1" as="geometry">
            <mxPoint x="660" y="360" as="sourcePoint" />
            <mxPoint x="710" y="310" as="targetPoint" />
          </mxGeometry>
        </mxCell>
        <mxCell id="QsrLsQC-pCVT0RDgNdcS-16" value="получения уведомления&amp;nbsp;" style="ellipse;whiteSpace=wrap;html=1;" vertex="1" parent="1">
          <mxGeometry x="660" y="545" width="120" height="80" as="geometry" />
        </mxCell>
        <mxCell id="QsrLsQC-pCVT0RDgNdcS-17" value="" style="endArrow=classic;html=1;rounded=0;exitX=0.716;exitY=0.988;exitDx=0;exitDy=0;exitPerimeter=0;entryX=0;entryY=0;entryDx=0;entryDy=0;" edge="1" parent="1" source="QsrLsQC-pCVT0RDgNdcS-10" target="QsrLsQC-pCVT0RDgNdcS-16">
          <mxGeometry width="50" height="50" relative="1" as="geometry">
            <mxPoint x="590" y="600" as="sourcePoint" />
            <mxPoint x="690" y="540" as="targetPoint" />
          </mxGeometry>
        </mxCell>
      </root>
    </mxGraphModel>
  </diagram>
</mxfile>
